<svg width="20" height="20" viewBox="0 0 20 20" fill="none" xmlns="http://www.w3.org/2000/svg">
<path d="M12.0799 0.00113568H1.59587C0.711555 0.00113568 -0.00878906 0.716958 -0.00878906 1.59675V11.9993C-0.00878906 11.9993 -0.00878496 13.5949 1.41607 13.5949H2.86354C4.30988 13.5949 4.29405 12.0231 4.29405 12.0231L4.31893 4.3526L12.055 4.32659C12.055 4.32659 13.6596 4.32659 13.6596 2.89382V1.43843C13.6596 -0.0158243 12.0799 7.18851e-06 12.0799 7.18851e-06V0.00113568Z" fill="#9B97CB"/>
<path d="M7.9206 19.9989H18.4046C19.2889 19.9989 20.0092 19.2831 20.0092 18.4033V8.0007C20.0092 8.0007 20.0093 6.40509 18.5844 6.40509H17.1369C15.6906 6.40509 15.7064 7.97695 15.7064 7.97695L15.6815 15.6474L7.94548 15.6734C7.94548 15.6734 6.34082 15.6734 6.34082 17.1062V18.5616C6.34082 20.0159 7.9206 20 7.9206 20V19.9989Z" fill="#9B97CB"/>
</svg>
